<svg width="26" height="26" viewBox="0 0 26 26" fill="none" xmlns="http://www.w3.org/2000/svg">
<circle cx="13" cy="13" r="13" fill="#2E361D"/>
<path d="M15.6667 6V8.66667M10.3333 6V8.66667M7 11.3333H19M10.3333 14H10.34M13 14H13.0067M15.6667 14H15.6733M10.3333 16.6667H10.34M13 16.6667H13.0067M15.6667 16.6667H15.6733M8.33333 7.33333H17.6667C18.403 7.33333 19 7.93029 19 8.66667V18C19 18.7364 18.403 19.3333 17.6667 19.3333H8.33333C7.59695 19.3333 7 18.7364 7 18V8.66667C7 7.93029 7.59695 7.33333 8.33333 7.33333Z" stroke="#E7DED4" stroke-linecap="round" stroke-linejoin="round"/>
</svg>
