<svg width="26" height="26" viewBox="0 0 26 26" fill="none" xmlns="http://www.w3.org/2000/svg">
<path d="M7 4H19V23H7V4Z" fill="#F6EDE4"/>
<path d="M13 26C5.8201 26 0 20.1799 0 13C0 5.8201 5.8201 0 13 0C20.1799 0 26 5.8201 26 13C26 20.1799 20.1799 26 13 26ZM8.45 15.6V18.2H11.7V20.8H14.3V18.2H15.6C16.462 18.2 17.2886 17.8576 17.8981 17.2481C18.5076 16.6386 18.85 15.812 18.85 14.95C18.85 14.088 18.5076 13.2614 17.8981 12.6519C17.2886 12.0424 16.462 11.7 15.6 11.7H10.4C10.2276 11.7 10.0623 11.6315 9.94038 11.5096C9.81848 11.3877 9.75 11.2224 9.75 11.05C9.75 10.8776 9.81848 10.7123 9.94038 10.5904C10.0623 10.4685 10.2276 10.4 10.4 10.4H17.55V7.8H14.3V5.2H11.7V7.8H10.4C9.53805 7.8 8.7114 8.14241 8.1019 8.7519C7.49241 9.3614 7.15 10.188 7.15 11.05C7.15 11.912 7.49241 12.7386 8.1019 13.3481C8.7114 13.9576 9.53805 14.3 10.4 14.3H15.6C15.7724 14.3 15.9377 14.3685 16.0596 14.4904C16.1815 14.6123 16.25 14.7776 16.25 14.95C16.25 15.1224 16.1815 15.2877 16.0596 15.4096C15.9377 15.5315 15.7724 15.6 15.6 15.6H8.45Z" fill="#2E361D"/>
</svg>
