<svg width="26" height="26" viewBox="0 0 26 26" fill="none" xmlns="http://www.w3.org/2000/svg">
<path d="M26 13C26 20.1797 20.1797 26 13 26C5.8203 26 0 20.1797 0 13C0 5.8203 5.8203 0 13 0C20.1797 0 26 5.8203 26 13Z" fill="#2E361D"/>
<path d="M13 13C12.1062 13 11.3411 12.6818 10.7047 12.0453C10.0682 11.4089 9.75 10.6438 9.75 9.75C9.75 8.85625 10.0682 8.09115 10.7047 7.45469C11.3411 6.81823 12.1062 6.5 13 6.5C13.8938 6.5 14.6589 6.81823 15.2953 7.45469C15.9318 8.09115 16.25 8.85625 16.25 9.75C16.25 10.6438 15.9318 11.4089 15.2953 12.0453C14.6589 12.6818 13.8938 13 13 13ZM6.5 19.5V17.225C6.5 16.7646 6.61849 16.3414 6.85547 15.9555C7.09245 15.5695 7.40729 15.275 7.8 15.0719C8.63958 14.6521 9.49271 14.3372 10.3594 14.1273C11.226 13.9174 12.1062 13.8125 13 13.8125C13.8938 13.8125 14.774 13.9174 15.6406 14.1273C16.5073 14.3372 17.3604 14.6521 18.2 15.0719C18.5927 15.275 18.9076 15.5695 19.1445 15.9555C19.3815 16.3414 19.5 16.7646 19.5 17.225V19.5H6.5ZM8.125 17.875H17.875V17.225C17.875 17.076 17.8378 16.9406 17.7633 16.8187C17.6888 16.6969 17.5906 16.6021 17.4688 16.5344C16.7375 16.1687 15.9995 15.8945 15.2547 15.7117C14.5099 15.5289 13.7583 15.4375 13 15.4375C12.2417 15.4375 11.4901 15.5289 10.7453 15.7117C10.0005 15.8945 9.2625 16.1687 8.53125 16.5344C8.40937 16.6021 8.3112 16.6969 8.23672 16.8187C8.16224 16.9406 8.125 17.076 8.125 17.225V17.875ZM13 11.375C13.4469 11.375 13.8294 11.2159 14.1477 10.8977C14.4659 10.5794 14.625 10.1969 14.625 9.75C14.625 9.30312 14.4659 8.92057 14.1477 8.60234C13.8294 8.28411 13.4469 8.125 13 8.125C12.5531 8.125 12.1706 8.28411 11.8523 8.60234C11.5341 8.92057 11.375 9.30312 11.375 9.75C11.375 10.1969 11.5341 10.5794 11.8523 10.8977C12.1706 11.2159 12.5531 11.375 13 11.375Z" fill="#F6EDE4"/>
</svg>
